<mxfile host="app.diagrams.net" agent="Mozilla/5.0 (Windows NT 10.0; Win64; x64) AppleWebKit/537.36 (KHTML, like Gecko) Chrome/137.0.0.0 Safari/537.36 Edg/137.0.0.0" version="26.2.13">
  <diagram name="Page-1" id="rEyPldxTlcFiVWtAm4uS">
    <mxGraphModel dx="2829" dy="1093" grid="1" gridSize="10" guides="1" tooltips="1" connect="1" arrows="1" fold="1" page="1" pageScale="1" pageWidth="827" pageHeight="1169" math="0" shadow="0">
      <root>
        <mxCell id="0" />
        <mxCell id="1" parent="0" />
        <mxCell id="xA-fxwkaHmTKi_L9O3ju-38" value="" style="rounded=1;whiteSpace=wrap;html=1;align=center;verticalAlign=middle;fontFamily=Helvetica;fontSize=12;" parent="1" vertex="1">
          <mxGeometry x="-1604" y="942.63" width="230" height="220" as="geometry" />
        </mxCell>
        <mxCell id="xA-fxwkaHmTKi_L9O3ju-1" value="" style="rounded=1;whiteSpace=wrap;html=1;fillStyle=auto;" parent="1" vertex="1">
          <mxGeometry x="-1599" y="680" width="289" height="200" as="geometry" />
        </mxCell>
        <mxCell id="xA-fxwkaHmTKi_L9O3ju-18" value="&lt;font style=&quot;font-size: 19px;&quot;&gt;&lt;b style=&quot;&quot;&gt;Job Commit&lt;/b&gt;&lt;/font&gt;" style="rounded=0;whiteSpace=wrap;html=1;strokeColor=none;align=center;verticalAlign=middle;fontFamily=Helvetica;fontSize=12;fontColor=default;fillColor=none;" parent="1" vertex="1">
          <mxGeometry x="-1577" y="680" width="243" height="40" as="geometry" />
        </mxCell>
        <mxCell id="xA-fxwkaHmTKi_L9O3ju-29" value="" style="edgeStyle=orthogonalEdgeStyle;rounded=0;orthogonalLoop=1;jettySize=auto;html=1;fontFamily=Helvetica;fontSize=12;fontColor=default;strokeWidth=1.5;" parent="1" source="xA-fxwkaHmTKi_L9O3ju-30" target="xA-fxwkaHmTKi_L9O3ju-57" edge="1">
          <mxGeometry relative="1" as="geometry">
            <Array as="points">
              <mxPoint x="-730" y="920" />
              <mxPoint x="-1028" y="920" />
            </Array>
          </mxGeometry>
        </mxCell>
        <mxCell id="xA-fxwkaHmTKi_L9O3ju-30" value="" style="rounded=1;whiteSpace=wrap;html=1;align=center;verticalAlign=middle;fontFamily=Helvetica;fontSize=12;" parent="1" vertex="1">
          <mxGeometry x="-875" y="680" width="250" height="200" as="geometry" />
        </mxCell>
        <mxCell id="xA-fxwkaHmTKi_L9O3ju-31" value="" style="sketch=0;points=[[0,0,0],[0.25,0,0],[0.5,0,0],[0.75,0,0],[1,0,0],[0,1,0],[0.25,1,0],[0.5,1,0],[0.75,1,0],[1,1,0],[0,0.25,0],[0,0.5,0],[0,0.75,0],[1,0.25,0],[1,0.5,0],[1,0.75,0]];outlineConnect=0;dashed=0;verticalLabelPosition=bottom;verticalAlign=top;align=center;html=1;fontSize=12;fontStyle=0;aspect=fixed;shape=mxgraph.aws4.resourceIcon;resIcon=mxgraph.aws4.machine_learning;rounded=1;fontFamily=Helvetica;" parent="1" vertex="1">
          <mxGeometry x="-850.5" y="743.5" width="100" height="100" as="geometry" />
        </mxCell>
        <mxCell id="xA-fxwkaHmTKi_L9O3ju-32" value="" style="sketch=0;points=[[0,0,0],[0.25,0,0],[0.5,0,0],[0.75,0,0],[1,0,0],[0,1,0],[0.25,1,0],[0.5,1,0],[0.75,1,0],[1,1,0],[0,0.25,0],[0,0.5,0],[0,0.75,0],[1,0.25,0],[1,0.5,0],[1,0.75,0]];outlineConnect=0;dashed=0;verticalLabelPosition=bottom;verticalAlign=top;align=center;html=1;fontSize=12;fontStyle=0;aspect=fixed;shape=mxgraph.aws4.resourceIcon;resIcon=mxgraph.aws4.forecast;rounded=1;fontFamily=Helvetica;" parent="1" vertex="1">
          <mxGeometry x="-745" y="740" width="100" height="100" as="geometry" />
        </mxCell>
        <mxCell id="xA-fxwkaHmTKi_L9O3ju-33" value="&lt;b style=&quot;&quot;&gt;&lt;font style=&quot;font-size: 19px;&quot;&gt;Prediction Model&lt;/font&gt;&lt;/b&gt;" style="rounded=0;whiteSpace=wrap;html=1;strokeColor=none;align=center;verticalAlign=middle;fontFamily=Helvetica;fontSize=12;fontColor=default;fillColor=none;" parent="1" vertex="1">
          <mxGeometry x="-850" y="680" width="210" height="30" as="geometry" />
        </mxCell>
        <mxCell id="xA-fxwkaHmTKi_L9O3ju-34" value="&lt;font style=&quot;font-size: 15px;&quot;&gt;&lt;b&gt;Train&lt;/b&gt;&lt;/font&gt;" style="rounded=0;whiteSpace=wrap;html=1;strokeColor=none;align=center;verticalAlign=middle;fontFamily=Helvetica;fontSize=12;fontColor=default;fillColor=none;" parent="1" vertex="1">
          <mxGeometry x="-855" y="700" width="120" height="60" as="geometry" />
        </mxCell>
        <mxCell id="xA-fxwkaHmTKi_L9O3ju-35" value="&lt;span style=&quot;font-size: 15px;&quot;&gt;&lt;b&gt;Predicion&lt;/b&gt;&lt;/span&gt;" style="rounded=0;whiteSpace=wrap;html=1;strokeColor=none;align=center;verticalAlign=middle;fontFamily=Helvetica;fontSize=12;fontColor=default;fillColor=none;" parent="1" vertex="1">
          <mxGeometry x="-752" y="700" width="120" height="60" as="geometry" />
        </mxCell>
        <mxCell id="xA-fxwkaHmTKi_L9O3ju-36" value="" style="endArrow=classic;html=1;rounded=0;fontFamily=Helvetica;fontSize=12;fontColor=default;strokeWidth=2;" parent="1" edge="1">
          <mxGeometry width="50" height="50" relative="1" as="geometry">
            <mxPoint x="-975" y="779.5" as="sourcePoint" />
            <mxPoint x="-875" y="779.5" as="targetPoint" />
          </mxGeometry>
        </mxCell>
        <mxCell id="xA-fxwkaHmTKi_L9O3ju-37" value="&lt;b&gt;&lt;font style=&quot;font-size: 14px;&quot;&gt;Train&lt;/font&gt;&lt;/b&gt;&lt;div&gt;&lt;b&gt;&lt;font style=&quot;font-size: 14px;&quot;&gt;Tuning&lt;/font&gt;&lt;/b&gt;&lt;/div&gt;" style="text;html=1;align=center;verticalAlign=middle;resizable=0;points=[];autosize=1;strokeColor=none;fillColor=none;fontFamily=Helvetica;fontSize=12;fontColor=default;" parent="1" vertex="1">
          <mxGeometry x="-960" y="720" width="70" height="50" as="geometry" />
        </mxCell>
        <mxCell id="xA-fxwkaHmTKi_L9O3ju-39" value="" style="ellipse;whiteSpace=wrap;html=1;aspect=fixed;rounded=1;strokeColor=#d6b656;align=center;verticalAlign=middle;fontFamily=Helvetica;fontSize=12;fillColor=#fff2cc;" parent="1" vertex="1">
          <mxGeometry x="-1566.25" y="1695" width="40" height="40" as="geometry" />
        </mxCell>
        <mxCell id="xA-fxwkaHmTKi_L9O3ju-40" value="" style="sketch=0;pointerEvents=1;shadow=0;dashed=0;html=1;strokeColor=none;fillColor=#434445;aspect=fixed;labelPosition=center;verticalLabelPosition=bottom;verticalAlign=top;align=center;outlineConnect=0;shape=mxgraph.vvd.cpu;rounded=1;fontFamily=Helvetica;fontSize=12;fontColor=default;" parent="1" vertex="1">
          <mxGeometry x="-1467.25" y="1690" width="50" height="50" as="geometry" />
        </mxCell>
        <mxCell id="xA-fxwkaHmTKi_L9O3ju-41" value="&lt;font style=&quot;font-size: 14px;&quot;&gt;&lt;b&gt;Job&lt;/b&gt;&lt;/font&gt;" style="text;html=1;align=center;verticalAlign=middle;resizable=0;points=[];autosize=1;strokeColor=none;fillColor=none;fontFamily=Helvetica;fontSize=12;fontColor=default;" parent="1" vertex="1">
          <mxGeometry x="-1531.25" y="1700" width="50" height="30" as="geometry" />
        </mxCell>
        <mxCell id="xA-fxwkaHmTKi_L9O3ju-42" value="&lt;font style=&quot;font-size: 14px;&quot;&gt;&lt;b&gt;GPU&lt;/b&gt;&lt;/font&gt;" style="text;html=1;align=center;verticalAlign=middle;resizable=0;points=[];autosize=1;strokeColor=none;fillColor=none;fontFamily=Helvetica;fontSize=12;fontColor=default;" parent="1" vertex="1">
          <mxGeometry x="-1409.25" y="1700" width="50" height="30" as="geometry" />
        </mxCell>
        <mxCell id="xA-fxwkaHmTKi_L9O3ju-56" value="&lt;font style=&quot;font-size: 14px;&quot;&gt;&lt;b&gt;Runtime Analyze&lt;/b&gt;&lt;/font&gt;" style="text;html=1;align=center;verticalAlign=middle;resizable=0;points=[];autosize=1;strokeColor=none;fillColor=none;fontFamily=Helvetica;fontSize=12;fontColor=default;" parent="1" vertex="1">
          <mxGeometry x="-1484" y="900.25" width="140" height="30" as="geometry" />
        </mxCell>
        <mxCell id="xA-fxwkaHmTKi_L9O3ju-57" value="" style="rounded=1;whiteSpace=wrap;html=1;align=center;verticalAlign=middle;fontFamily=Helvetica;fontSize=12;" parent="1" vertex="1">
          <mxGeometry x="-1341" y="942.63" width="437" height="220" as="geometry" />
        </mxCell>
        <mxCell id="xA-fxwkaHmTKi_L9O3ju-58" value="&lt;b style=&quot;&quot;&gt;&lt;font style=&quot;font-size: 19px;&quot;&gt;Scheduler&lt;/font&gt;&lt;/b&gt;" style="rounded=0;whiteSpace=wrap;html=1;strokeColor=none;align=center;verticalAlign=middle;fontFamily=Helvetica;fontSize=12;fontColor=default;fillColor=none;" parent="1" vertex="1">
          <mxGeometry x="-1211" y="937.38" width="210" height="60" as="geometry" />
        </mxCell>
        <mxCell id="xA-fxwkaHmTKi_L9O3ju-65" value="" style="endArrow=classic;html=1;rounded=0;fontFamily=Helvetica;fontSize=12;fontColor=default;strokeWidth=2;" parent="1" edge="1">
          <mxGeometry width="50" height="50" relative="1" as="geometry">
            <mxPoint x="-615.1250101419929" y="1520.0000000000002" as="sourcePoint" />
            <mxPoint x="-568.88" y="1520" as="targetPoint" />
          </mxGeometry>
        </mxCell>
        <mxCell id="xA-fxwkaHmTKi_L9O3ju-79" value="&lt;b style=&quot;&quot;&gt;&lt;font style=&quot;font-size: 19px;&quot;&gt;Interference Analyze&lt;/font&gt;&lt;/b&gt;" style="rounded=0;whiteSpace=wrap;html=1;strokeColor=none;align=center;verticalAlign=middle;fontFamily=Helvetica;fontSize=12;fontColor=default;fillColor=none;" parent="1" vertex="1">
          <mxGeometry x="-1610" y="952.63" width="243" height="29.75" as="geometry" />
        </mxCell>
        <mxCell id="xA-fxwkaHmTKi_L9O3ju-80" value="&lt;font style=&quot;font-size: 14px;&quot;&gt;&lt;b&gt;Runtime Prediction&lt;/b&gt;&lt;/font&gt;" style="text;html=1;align=center;verticalAlign=middle;resizable=0;points=[];autosize=1;strokeColor=none;fillColor=none;fontFamily=Helvetica;fontSize=12;fontColor=default;" parent="1" vertex="1">
          <mxGeometry x="-940" y="890" width="150" height="30" as="geometry" />
        </mxCell>
        <mxCell id="xA-fxwkaHmTKi_L9O3ju-81" value="" style="endArrow=classic;html=1;rounded=0;fontFamily=Helvetica;fontSize=12;fontColor=default;strokeWidth=2;" parent="1" edge="1">
          <mxGeometry width="50" height="50" relative="1" as="geometry">
            <mxPoint x="-1374" y="1060.4999999999998" as="sourcePoint" />
            <mxPoint x="-1344.25" y="1061" as="targetPoint" />
          </mxGeometry>
        </mxCell>
        <mxCell id="pxr-nG4pKd3Dx8W5PENf-3" value="" style="endArrow=classic;html=1;rounded=0;strokeWidth=2;" edge="1" parent="1">
          <mxGeometry width="50" height="50" relative="1" as="geometry">
            <mxPoint x="-1483" y="882" as="sourcePoint" />
            <mxPoint x="-1483" y="940" as="targetPoint" />
          </mxGeometry>
        </mxCell>
        <mxCell id="pxr-nG4pKd3Dx8W5PENf-26" value="" style="rounded=1;whiteSpace=wrap;html=1;fillColor=#d5e8d4;strokeColor=#82b366;strokeWidth=3;" vertex="1" parent="1">
          <mxGeometry x="-1316.75" y="1695" width="38" height="40" as="geometry" />
        </mxCell>
        <mxCell id="pxr-nG4pKd3Dx8W5PENf-27" value="&lt;span style=&quot;text-wrap-mode: wrap;&quot;&gt;&lt;font style=&quot;font-size: 14px;&quot;&gt;&lt;b&gt;Guaranteed Job&lt;/b&gt;&lt;/font&gt;&lt;/span&gt;" style="text;html=1;align=center;verticalAlign=middle;resizable=0;points=[];autosize=1;strokeColor=none;fillColor=none;" vertex="1" parent="1">
          <mxGeometry x="-1278.25" y="1700" width="130" height="30" as="geometry" />
        </mxCell>
        <mxCell id="pxr-nG4pKd3Dx8W5PENf-28" value="" style="rounded=1;whiteSpace=wrap;html=1;fillColor=#fff2cc;strokeColor=#d6b656;strokeWidth=3;" vertex="1" parent="1">
          <mxGeometry x="-1138.25" y="1695" width="38" height="40" as="geometry" />
        </mxCell>
        <mxCell id="pxr-nG4pKd3Dx8W5PENf-29" value="&lt;font style=&quot;font-size: 14px;&quot;&gt;&lt;b style=&quot;&quot;&gt;Best-effort&amp;nbsp;&lt;/b&gt;&lt;/font&gt;&lt;div&gt;&lt;font style=&quot;font-size: 14px;&quot;&gt;&lt;b style=&quot;&quot;&gt;Job&lt;/b&gt;&lt;/font&gt;&lt;b style=&quot;font-size: 14px; background-color: transparent; color: light-dark(rgb(0, 0, 0), rgb(255, 255, 255));&quot;&gt;&amp;nbsp;&lt;/b&gt;&lt;/div&gt;" style="text;html=1;align=center;verticalAlign=middle;whiteSpace=wrap;rounded=0;" vertex="1" parent="1">
          <mxGeometry x="-1088.25" y="1700" width="118" height="30" as="geometry" />
        </mxCell>
        <mxCell id="pxr-nG4pKd3Dx8W5PENf-67" value="" style="group" vertex="1" connectable="0" parent="1">
          <mxGeometry x="-1331" y="992.63" width="280" height="150.38" as="geometry" />
        </mxCell>
        <mxCell id="xA-fxwkaHmTKi_L9O3ju-64" value="" style="rounded=1;whiteSpace=wrap;html=1;strokeColor=default;align=center;verticalAlign=middle;fontFamily=Helvetica;fontSize=12;fontColor=default;fillColor=none;dashed=1;dashPattern=8 8;" parent="pxr-nG4pKd3Dx8W5PENf-67" vertex="1">
          <mxGeometry x="0.5" width="279.5" height="150.38" as="geometry" />
        </mxCell>
        <mxCell id="xA-fxwkaHmTKi_L9O3ju-67" value="&lt;b style=&quot;&quot;&gt;&lt;font style=&quot;font-size: 17px;&quot;&gt;Cluster-level Queue&lt;/font&gt;&lt;/b&gt;" style="rounded=0;whiteSpace=wrap;html=1;strokeColor=none;align=center;verticalAlign=middle;fontFamily=Helvetica;fontSize=12;fontColor=default;fillColor=none;" parent="pxr-nG4pKd3Dx8W5PENf-67" vertex="1">
          <mxGeometry x="40" y="3.4226021705427034" width="210" height="55.9553488372093" as="geometry" />
        </mxCell>
        <mxCell id="xA-fxwkaHmTKi_L9O3ju-68" value="" style="endArrow=none;dashed=1;html=1;dashPattern=1 3;strokeWidth=2;rounded=0;" parent="pxr-nG4pKd3Dx8W5PENf-67" edge="1">
          <mxGeometry width="50" height="50" relative="1" as="geometry">
            <mxPoint x="10.75" y="94.4246511627907" as="sourcePoint" />
            <mxPoint x="270" y="94.4246511627907" as="targetPoint" />
          </mxGeometry>
        </mxCell>
        <mxCell id="xA-fxwkaHmTKi_L9O3ju-69" value="" style="rounded=1;whiteSpace=wrap;html=1;fillColor=#d5e8d4;strokeColor=#82b366;strokeWidth=3;" parent="pxr-nG4pKd3Dx8W5PENf-67" vertex="1">
          <mxGeometry x="120" y="59.377951007752" width="30" height="27.97767441860465" as="geometry" />
        </mxCell>
        <mxCell id="xA-fxwkaHmTKi_L9O3ju-70" value="" style="rounded=1;whiteSpace=wrap;html=1;fillColor=#d5e8d4;strokeColor=#82b366;strokeWidth=3;" parent="pxr-nG4pKd3Dx8W5PENf-67" vertex="1">
          <mxGeometry x="160" y="59.377951007752" width="30" height="27.97767441860465" as="geometry" />
        </mxCell>
        <mxCell id="xA-fxwkaHmTKi_L9O3ju-71" value="" style="rounded=1;whiteSpace=wrap;html=1;fillColor=#d5e8d4;strokeColor=#82b366;strokeWidth=3;" parent="pxr-nG4pKd3Dx8W5PENf-67" vertex="1">
          <mxGeometry x="199.75" y="59.377951007752" width="30" height="27.97767441860465" as="geometry" />
        </mxCell>
        <mxCell id="xA-fxwkaHmTKi_L9O3ju-72" value="" style="rounded=1;whiteSpace=wrap;html=1;fillColor=#d5e8d4;strokeColor=#82b366;strokeWidth=3;" parent="pxr-nG4pKd3Dx8W5PENf-67" vertex="1">
          <mxGeometry x="240" y="59.377951007752" width="30" height="27.97767441860465" as="geometry" />
        </mxCell>
        <mxCell id="xA-fxwkaHmTKi_L9O3ju-73" value="&lt;font style=&quot;font-size: 14px;&quot;&gt;&lt;b&gt;High priority Queue&lt;/b&gt;&lt;/font&gt;" style="text;whiteSpace=wrap;html=1;fontFamily=Helvetica;fontSize=12;fontColor=default;align=center;" parent="pxr-nG4pKd3Dx8W5PENf-67" vertex="1">
          <mxGeometry y="54.71500527131789" width="130" height="37.303565891472864" as="geometry" />
        </mxCell>
        <mxCell id="xA-fxwkaHmTKi_L9O3ju-77" value="&lt;font style=&quot;font-size: 14px;&quot;&gt;&lt;b&gt;Low Priority Queue&lt;/b&gt;&lt;/font&gt;" style="text;whiteSpace=wrap;html=1;fontFamily=Helvetica;fontSize=12;fontColor=default;align=center;" parent="pxr-nG4pKd3Dx8W5PENf-67" vertex="1">
          <mxGeometry y="99.08759689922479" width="130" height="37.303565891472864" as="geometry" />
        </mxCell>
        <mxCell id="pxr-nG4pKd3Dx8W5PENf-30" value="" style="rounded=1;whiteSpace=wrap;html=1;fillColor=#fff2cc;strokeColor=#d6b656;strokeWidth=3;" vertex="1" parent="pxr-nG4pKd3Dx8W5PENf-67">
          <mxGeometry x="199.75" y="103.7505426356589" width="30" height="27.97767441860465" as="geometry" />
        </mxCell>
        <mxCell id="pxr-nG4pKd3Dx8W5PENf-32" value="" style="rounded=1;whiteSpace=wrap;html=1;fillColor=#fff2cc;strokeColor=#d6b656;strokeWidth=3;" vertex="1" parent="pxr-nG4pKd3Dx8W5PENf-67">
          <mxGeometry x="160" y="103.7505426356589" width="30" height="27.97767441860465" as="geometry" />
        </mxCell>
        <mxCell id="pxr-nG4pKd3Dx8W5PENf-33" value="" style="rounded=1;whiteSpace=wrap;html=1;fillColor=#fff2cc;strokeColor=#d6b656;strokeWidth=3;" vertex="1" parent="pxr-nG4pKd3Dx8W5PENf-67">
          <mxGeometry x="120" y="103.7505426356589" width="30" height="27.97767441860465" as="geometry" />
        </mxCell>
        <mxCell id="pxr-nG4pKd3Dx8W5PENf-70" value="" style="group" vertex="1" connectable="0" parent="1">
          <mxGeometry x="-1041" y="992.63" width="157" height="150" as="geometry" />
        </mxCell>
        <mxCell id="xA-fxwkaHmTKi_L9O3ju-59" value="" style="rounded=1;whiteSpace=wrap;html=1;strokeColor=default;align=center;verticalAlign=middle;fontFamily=Helvetica;fontSize=12;fontColor=default;fillColor=none;dashed=1;dashPattern=8 8;" parent="pxr-nG4pKd3Dx8W5PENf-70" vertex="1">
          <mxGeometry width="126.68587896253602" height="150" as="geometry" />
        </mxCell>
        <mxCell id="xA-fxwkaHmTKi_L9O3ju-61" value="&lt;font style=&quot;font-size: 14px;&quot;&gt;Job Sorting&lt;/font&gt;" style="rounded=0;whiteSpace=wrap;html=1;strokeColor=default;align=center;verticalAlign=middle;fontFamily=Helvetica;fontSize=12;fontColor=default;fillColor=none;" parent="pxr-nG4pKd3Dx8W5PENf-70" vertex="1">
          <mxGeometry x="7.69164265129683" y="44.594594594594604" width="108.58789625360231" height="24.324324324324326" as="geometry" />
        </mxCell>
        <mxCell id="xA-fxwkaHmTKi_L9O3ju-62" value="&lt;font style=&quot;font-size: 14px;&quot;&gt;Fair Quotas&lt;/font&gt;" style="rounded=0;whiteSpace=wrap;html=1;strokeColor=default;align=center;verticalAlign=middle;fontFamily=Helvetica;fontSize=12;fontColor=default;fillColor=none;" parent="pxr-nG4pKd3Dx8W5PENf-70" vertex="1">
          <mxGeometry x="7.69164265129683" y="77.02702702702705" width="108.58789625360231" height="24.324324324324326" as="geometry" />
        </mxCell>
        <mxCell id="xA-fxwkaHmTKi_L9O3ju-63" value="&lt;font style=&quot;font-size: 14px;&quot;&gt;Job Preempt&lt;/font&gt;" style="rounded=0;whiteSpace=wrap;html=1;strokeColor=default;align=center;verticalAlign=middle;fontFamily=Helvetica;fontSize=12;fontColor=default;fillColor=none;" parent="pxr-nG4pKd3Dx8W5PENf-70" vertex="1">
          <mxGeometry x="7.69164265129683" y="109.45945945945948" width="108.58789625360231" height="24.324324324324326" as="geometry" />
        </mxCell>
        <mxCell id="pxr-nG4pKd3Dx8W5PENf-4" style="edgeStyle=orthogonalEdgeStyle;rounded=0;orthogonalLoop=1;jettySize=auto;html=1;exitX=0.5;exitY=1;exitDx=0;exitDy=0;" edge="1" parent="pxr-nG4pKd3Dx8W5PENf-70" source="xA-fxwkaHmTKi_L9O3ju-61" target="xA-fxwkaHmTKi_L9O3ju-61">
          <mxGeometry relative="1" as="geometry" />
        </mxCell>
        <mxCell id="xA-fxwkaHmTKi_L9O3ju-60" value="&lt;b style=&quot;&quot;&gt;&lt;font style=&quot;font-size: 17px;&quot;&gt;Schedule&amp;nbsp;&lt;/font&gt;&lt;/b&gt;&lt;div&gt;&lt;b style=&quot;&quot;&gt;&lt;font style=&quot;font-size: 17px;&quot;&gt;Process&lt;/font&gt;&lt;/b&gt;&lt;/div&gt;" style="rounded=0;whiteSpace=wrap;html=1;strokeColor=none;align=center;verticalAlign=middle;fontFamily=Helvetica;fontSize=12;fontColor=default;fillColor=none;" parent="pxr-nG4pKd3Dx8W5PENf-70" vertex="1">
          <mxGeometry x="-33.028818443804035" width="190.02881844380403" height="54.21686746987952" as="geometry" />
        </mxCell>
        <mxCell id="pxr-nG4pKd3Dx8W5PENf-101" value="" style="rounded=1;whiteSpace=wrap;html=1;fillColor=#d5e8d4;strokeColor=#82b366;strokeWidth=3;" vertex="1" parent="1">
          <mxGeometry x="-1306.75" y="1705" width="38" height="40" as="geometry" />
        </mxCell>
        <mxCell id="pxr-nG4pKd3Dx8W5PENf-104" value="" style="endArrow=classic;html=1;rounded=0;fontFamily=Helvetica;fontSize=12;fontColor=default;strokeWidth=1.5;" edge="1" parent="1">
          <mxGeometry width="50" height="50" relative="1" as="geometry">
            <mxPoint x="-900" y="1061" as="sourcePoint" />
            <mxPoint x="-840" y="1061" as="targetPoint" />
          </mxGeometry>
        </mxCell>
        <mxCell id="pxr-nG4pKd3Dx8W5PENf-106" value="" style="group" vertex="1" connectable="0" parent="1">
          <mxGeometry x="-1577.5" y="710" width="240" height="130" as="geometry" />
        </mxCell>
        <mxCell id="xA-fxwkaHmTKi_L9O3ju-2" value="" style="endArrow=none;dashed=1;html=1;dashPattern=1 3;strokeWidth=2;rounded=0;" parent="pxr-nG4pKd3Dx8W5PENf-106" edge="1">
          <mxGeometry width="50" height="50" relative="1" as="geometry">
            <mxPoint y="90" as="sourcePoint" />
            <mxPoint x="240" y="90" as="targetPoint" />
          </mxGeometry>
        </mxCell>
        <mxCell id="xA-fxwkaHmTKi_L9O3ju-3" value="" style="rounded=1;whiteSpace=wrap;html=1;fillColor=#d5e8d4;strokeColor=#82b366;strokeWidth=3;" parent="pxr-nG4pKd3Dx8W5PENf-106" vertex="1">
          <mxGeometry x="80.75" y="50" width="30" height="30" as="geometry" />
        </mxCell>
        <mxCell id="xA-fxwkaHmTKi_L9O3ju-4" value="" style="rounded=1;whiteSpace=wrap;html=1;fillColor=#d5e8d4;strokeColor=#82b366;strokeWidth=3;" parent="pxr-nG4pKd3Dx8W5PENf-106" vertex="1">
          <mxGeometry x="121" y="50" width="30" height="30" as="geometry" />
        </mxCell>
        <mxCell id="xA-fxwkaHmTKi_L9O3ju-5" value="" style="rounded=1;whiteSpace=wrap;html=1;fillColor=#d5e8d4;strokeColor=#82b366;strokeWidth=3;" parent="pxr-nG4pKd3Dx8W5PENf-106" vertex="1">
          <mxGeometry x="163.25" y="50" width="30" height="30" as="geometry" />
        </mxCell>
        <mxCell id="xA-fxwkaHmTKi_L9O3ju-6" value="" style="rounded=1;whiteSpace=wrap;html=1;fillColor=#fff2cc;strokeColor=#d6b656;strokeWidth=3;" parent="pxr-nG4pKd3Dx8W5PENf-106" vertex="1">
          <mxGeometry x="205" y="50" width="30" height="30" as="geometry" />
        </mxCell>
        <mxCell id="xA-fxwkaHmTKi_L9O3ju-7" value="" style="rounded=1;whiteSpace=wrap;html=1;fillColor=#d5e8d4;strokeColor=#82b366;strokeWidth=3;" parent="pxr-nG4pKd3Dx8W5PENf-106" vertex="1">
          <mxGeometry x="121" y="100" width="30" height="30" as="geometry" />
        </mxCell>
        <mxCell id="xA-fxwkaHmTKi_L9O3ju-8" value="" style="rounded=1;whiteSpace=wrap;html=1;fillColor=#fff2cc;strokeColor=#d6b656;strokeWidth=3;" parent="pxr-nG4pKd3Dx8W5PENf-106" vertex="1">
          <mxGeometry x="205" y="100" width="30" height="30" as="geometry" />
        </mxCell>
        <mxCell id="xA-fxwkaHmTKi_L9O3ju-9" value="" style="rounded=1;whiteSpace=wrap;html=1;fillColor=#fff2cc;strokeColor=#d6b656;strokeWidth=3;" parent="pxr-nG4pKd3Dx8W5PENf-106" vertex="1">
          <mxGeometry x="163.25" y="100" width="30" height="30" as="geometry" />
        </mxCell>
        <mxCell id="xA-fxwkaHmTKi_L9O3ju-10" value="" style="sketch=0;outlineConnect=0;fontColor=#232F3E;gradientColor=none;fillColor=#232F3D;strokeColor=none;dashed=0;verticalLabelPosition=bottom;verticalAlign=top;align=center;html=1;fontSize=12;fontStyle=0;aspect=fixed;pointerEvents=1;shape=mxgraph.aws4.user;" parent="pxr-nG4pKd3Dx8W5PENf-106" vertex="1">
          <mxGeometry x="16" y="50" width="28" height="29.47" as="geometry" />
        </mxCell>
        <mxCell id="pxr-nG4pKd3Dx8W5PENf-31" value="&lt;span style=&quot;font-size: 18px;&quot;&gt;&lt;b&gt;User-level Queue&lt;/b&gt;&lt;/span&gt;" style="rounded=0;whiteSpace=wrap;html=1;strokeColor=none;align=center;verticalAlign=middle;fontFamily=Helvetica;fontSize=12;fontColor=default;fillColor=none;" vertex="1" parent="pxr-nG4pKd3Dx8W5PENf-106">
          <mxGeometry x="16" width="210" height="60" as="geometry" />
        </mxCell>
        <mxCell id="pxr-nG4pKd3Dx8W5PENf-105" value="" style="sketch=0;outlineConnect=0;fontColor=#232F3E;gradientColor=none;fillColor=#232F3D;strokeColor=none;dashed=0;verticalLabelPosition=bottom;verticalAlign=top;align=center;html=1;fontSize=12;fontStyle=0;aspect=fixed;pointerEvents=1;shape=mxgraph.aws4.user;" vertex="1" parent="pxr-nG4pKd3Dx8W5PENf-106">
          <mxGeometry x="16" y="100" width="28" height="29.47" as="geometry" />
        </mxCell>
        <mxCell id="pxr-nG4pKd3Dx8W5PENf-109" value="&lt;font style=&quot;text-wrap-mode: nowrap; font-size: 14px;&quot;&gt;&lt;b&gt;Data&amp;nbsp;&lt;/b&gt;&lt;/font&gt;&lt;div style=&quot;text-wrap-mode: nowrap;&quot;&gt;&lt;font style=&quot;font-size: 14px;&quot;&gt;&lt;b&gt;Collection&lt;/b&gt;&lt;/font&gt;&lt;/div&gt;" style="text;html=1;align=center;verticalAlign=middle;whiteSpace=wrap;rounded=0;" vertex="1" parent="1">
          <mxGeometry x="-1278.25" y="740" width="60" height="30" as="geometry" />
        </mxCell>
        <mxCell id="pxr-nG4pKd3Dx8W5PENf-110" value="" style="endArrow=classic;html=1;rounded=0;fontFamily=Helvetica;fontSize=12;fontColor=default;strokeWidth=2;" edge="1" parent="1">
          <mxGeometry width="50" height="50" relative="1" as="geometry">
            <mxPoint x="-1306.75" y="780" as="sourcePoint" />
            <mxPoint x="-1200" y="780" as="targetPoint" />
          </mxGeometry>
        </mxCell>
        <mxCell id="pxr-nG4pKd3Dx8W5PENf-111" value="" style="group" vertex="1" connectable="0" parent="1">
          <mxGeometry x="-1196.75" y="670" width="220" height="210" as="geometry" />
        </mxCell>
        <mxCell id="xA-fxwkaHmTKi_L9O3ju-19" value="&lt;div&gt;&lt;br&gt;&lt;/div&gt;&lt;div&gt;&lt;br&gt;&lt;/div&gt;&lt;div&gt;&lt;br&gt;&lt;/div&gt;&lt;div&gt;&lt;br&gt;&lt;/div&gt;&lt;div&gt;&lt;br&gt;&lt;/div&gt;&lt;div&gt;&lt;br&gt;&lt;/div&gt;&lt;div&gt;&lt;br&gt;&lt;/div&gt;&lt;div&gt;&lt;br&gt;&lt;/div&gt;" style="rounded=1;whiteSpace=wrap;html=1;align=center;verticalAlign=middle;fontFamily=Helvetica;fontSize=12;" parent="pxr-nG4pKd3Dx8W5PENf-111" vertex="1">
          <mxGeometry y="10" width="220" height="200" as="geometry" />
        </mxCell>
        <mxCell id="xA-fxwkaHmTKi_L9O3ju-20" value="&lt;font style=&quot;font-size: 19px;&quot;&gt;&lt;b style=&quot;&quot;&gt;Feature Extraction&lt;/b&gt;&lt;/font&gt;" style="rounded=0;whiteSpace=wrap;html=1;strokeColor=none;align=center;verticalAlign=middle;fontFamily=Helvetica;fontSize=12;fontColor=default;fillColor=none;" parent="pxr-nG4pKd3Dx8W5PENf-111" vertex="1">
          <mxGeometry x="6" width="210" height="60" as="geometry" />
        </mxCell>
        <mxCell id="xA-fxwkaHmTKi_L9O3ju-21" value="&lt;font style=&quot;font-size: 14px;&quot;&gt;Model Configuration&lt;/font&gt;" style="rounded=1;whiteSpace=wrap;html=1;align=center;verticalAlign=middle;fontFamily=Helvetica;fontSize=12;" parent="pxr-nG4pKd3Dx8W5PENf-111" vertex="1">
          <mxGeometry x="27" y="60" width="170" height="45" as="geometry" />
        </mxCell>
        <mxCell id="xA-fxwkaHmTKi_L9O3ju-24" value="&lt;span style=&quot;color: light-dark(rgb(0, 0, 0), rgb(255, 255, 255)); background-color: transparent;&quot;&gt;&lt;font style=&quot;font-size: 14px;&quot;&gt;Runtime Utilization Characteristic&lt;/font&gt;&lt;/span&gt;" style="rounded=1;whiteSpace=wrap;html=1;align=center;verticalAlign=middle;fontFamily=Helvetica;fontSize=12;" parent="pxr-nG4pKd3Dx8W5PENf-111" vertex="1">
          <mxGeometry x="27" y="110" width="172" height="45" as="geometry" />
        </mxCell>
        <mxCell id="pxr-nG4pKd3Dx8W5PENf-107" value="&lt;font style=&quot;font-size: 14px;&quot;&gt;Model Architechture&lt;/font&gt;" style="rounded=1;whiteSpace=wrap;html=1;align=center;verticalAlign=middle;fontFamily=Helvetica;fontSize=12;" vertex="1" parent="pxr-nG4pKd3Dx8W5PENf-111">
          <mxGeometry x="27" y="160" width="170" height="45" as="geometry" />
        </mxCell>
        <mxCell id="pxr-nG4pKd3Dx8W5PENf-122" value="" style="group" vertex="1" connectable="0" parent="1">
          <mxGeometry x="-1601.5" y="982.38" width="209" height="173" as="geometry" />
        </mxCell>
        <mxCell id="xA-fxwkaHmTKi_L9O3ju-43" value="" style="ellipse;whiteSpace=wrap;html=1;aspect=fixed;rounded=1;strokeColor=#d6b656;align=center;verticalAlign=middle;fontFamily=Helvetica;fontSize=12;fillColor=#fff2cc;" parent="pxr-nG4pKd3Dx8W5PENf-122" vertex="1">
          <mxGeometry x="17.926778242677823" y="26.71814671814672" width="25.794203436124832" height="25.794203436124832" as="geometry" />
        </mxCell>
        <mxCell id="xA-fxwkaHmTKi_L9O3ju-44" value="" style="sketch=0;pointerEvents=1;shadow=0;dashed=0;html=1;strokeColor=none;fillColor=#434445;aspect=fixed;labelPosition=center;verticalLabelPosition=bottom;verticalAlign=top;align=center;outlineConnect=0;shape=mxgraph.vvd.cpu;rounded=1;fontFamily=Helvetica;fontSize=12;fontColor=default;" parent="pxr-nG4pKd3Dx8W5PENf-122" vertex="1">
          <mxGeometry x="80.23326359832636" y="22.26512226512227" width="34.392271248166445" height="34.392271248166445" as="geometry" />
        </mxCell>
        <mxCell id="xA-fxwkaHmTKi_L9O3ju-47" value="&lt;font style=&quot;font-size: 14px;&quot;&gt;&lt;b&gt;Single&lt;/b&gt;&lt;/font&gt;" style="text;html=1;align=center;verticalAlign=middle;resizable=0;points=[];autosize=1;strokeColor=none;fillColor=none;fontFamily=Helvetica;fontSize=12;fontColor=default;" parent="pxr-nG4pKd3Dx8W5PENf-122" vertex="1">
          <mxGeometry x="0.4372384937238494" width="70" height="30" as="geometry" />
        </mxCell>
        <mxCell id="xA-fxwkaHmTKi_L9O3ju-48" value="" style="sketch=0;pointerEvents=1;shadow=0;dashed=0;html=1;strokeColor=none;fillColor=#434445;aspect=fixed;labelPosition=center;verticalLabelPosition=bottom;verticalAlign=top;align=center;outlineConnect=0;shape=mxgraph.vvd.cpu;rounded=1;fontFamily=Helvetica;fontSize=12;fontColor=default;" parent="pxr-nG4pKd3Dx8W5PENf-122" vertex="1">
          <mxGeometry x="80.23326359832636" y="99.74774774774775" width="34.392271248166445" height="34.392271248166445" as="geometry" />
        </mxCell>
        <mxCell id="xA-fxwkaHmTKi_L9O3ju-49" value="&lt;font style=&quot;font-size: 14px;&quot;&gt;&lt;b&gt;Colocate&lt;/b&gt;&lt;/font&gt;" style="text;html=1;align=center;verticalAlign=middle;resizable=0;points=[];autosize=1;strokeColor=none;fillColor=none;fontFamily=Helvetica;fontSize=12;fontColor=default;" parent="pxr-nG4pKd3Dx8W5PENf-122" vertex="1">
          <mxGeometry y="48.983268983268985" width="80" height="30" as="geometry" />
        </mxCell>
        <mxCell id="pxr-nG4pKd3Dx8W5PENf-63" value="" style="edgeStyle=orthogonalEdgeStyle;rounded=0;orthogonalLoop=1;jettySize=auto;html=1;" edge="1" parent="pxr-nG4pKd3Dx8W5PENf-122" source="pxr-nG4pKd3Dx8W5PENf-1" target="pxr-nG4pKd3Dx8W5PENf-2">
          <mxGeometry relative="1" as="geometry" />
        </mxCell>
        <mxCell id="pxr-nG4pKd3Dx8W5PENf-1" value="&lt;b style=&quot;&quot;&gt;&lt;font style=&quot;font-size: 15px;&quot;&gt;Interference Model&lt;/font&gt;&lt;/b&gt;" style="rounded=0;whiteSpace=wrap;html=1;strokeColor=#9673a6;align=center;verticalAlign=middle;fontFamily=Helvetica;fontSize=12;fillColor=#e1d5e7;" vertex="1" parent="pxr-nG4pKd3Dx8W5PENf-122">
          <mxGeometry x="131.8274058577406" y="11.577863577863578" width="77.17259414225941" height="115.77863577863577" as="geometry" />
        </mxCell>
        <mxCell id="pxr-nG4pKd3Dx8W5PENf-2" value="&lt;font style=&quot;font-size: 14px;&quot;&gt;&lt;b&gt;Decay&lt;/b&gt;&lt;/font&gt;" style="rounded=1;whiteSpace=wrap;html=1;fillColor=#f8cecc;strokeColor=#b85450;" vertex="1" parent="pxr-nG4pKd3Dx8W5PENf-122">
          <mxGeometry x="136.1997907949791" y="150.51222651222653" width="69.0836820083682" height="22.487773487773488" as="geometry" />
        </mxCell>
        <mxCell id="pxr-nG4pKd3Dx8W5PENf-112" value="" style="group" vertex="1" connectable="0" parent="pxr-nG4pKd3Dx8W5PENf-122">
          <mxGeometry x="4.809623430962343" y="73.02960102960104" width="52.46861924686193" height="89.06048906048908" as="geometry" />
        </mxCell>
        <mxCell id="pxr-nG4pKd3Dx8W5PENf-11" value="" style="rounded=1;whiteSpace=wrap;html=1;fillColor=#f5f5f5;strokeColor=#666666;fontColor=#333333;" vertex="1" parent="pxr-nG4pKd3Dx8W5PENf-112">
          <mxGeometry x="5.2468619246861925" width="43.72384937238494" height="89.06048906048908" as="geometry" />
        </mxCell>
        <mxCell id="xA-fxwkaHmTKi_L9O3ju-51" value="" style="ellipse;whiteSpace=wrap;html=1;aspect=fixed;rounded=1;strokeColor=#d6b656;align=center;verticalAlign=middle;fontFamily=Helvetica;fontSize=12;fillColor=#fff2cc;rotation=90;" parent="pxr-nG4pKd3Dx8W5PENf-112" vertex="1">
          <mxGeometry x="13.99163179916318" y="8.906048906048907" width="25.794203436124835" height="25.794203436124835" as="geometry" />
        </mxCell>
        <mxCell id="xA-fxwkaHmTKi_L9O3ju-52" value="" style="ellipse;whiteSpace=wrap;html=1;aspect=fixed;rounded=1;strokeColor=#d6b656;align=center;verticalAlign=middle;fontFamily=Helvetica;fontSize=12;fillColor=#fff2cc;rotation=90;" parent="pxr-nG4pKd3Dx8W5PENf-112" vertex="1">
          <mxGeometry x="13.99163179916318" y="56.10810810810812" width="25.794203436124835" height="25.794203436124835" as="geometry" />
        </mxCell>
        <mxCell id="pxr-nG4pKd3Dx8W5PENf-10" value="&lt;font style=&quot;font-size: 16px;&quot;&gt;&lt;b&gt;...&lt;/b&gt;&lt;/font&gt;" style="text;html=1;align=center;verticalAlign=middle;whiteSpace=wrap;rounded=0;" vertex="1" parent="pxr-nG4pKd3Dx8W5PENf-112">
          <mxGeometry y="31.171171171171174" width="52.46861924686193" height="26.71814671814672" as="geometry" />
        </mxCell>
        <mxCell id="pxr-nG4pKd3Dx8W5PENf-115" value="" style="endArrow=classic;html=1;rounded=0;" edge="1" parent="pxr-nG4pKd3Dx8W5PENf-122">
          <mxGeometry width="50" height="50" relative="1" as="geometry">
            <mxPoint x="63.83682008368201" y="40.96782496782497" as="sourcePoint" />
            <mxPoint x="81.32635983263599" y="40.96782496782497" as="targetPoint" />
          </mxGeometry>
        </mxCell>
        <mxCell id="pxr-nG4pKd3Dx8W5PENf-119" value="" style="endArrow=classic;html=1;rounded=0;" edge="1" parent="pxr-nG4pKd3Dx8W5PENf-122">
          <mxGeometry width="50" height="50" relative="1" as="geometry">
            <mxPoint x="115.43096234309624" y="41.85842985842986" as="sourcePoint" />
            <mxPoint x="132.9205020920502" y="41.85842985842986" as="targetPoint" />
          </mxGeometry>
        </mxCell>
        <mxCell id="pxr-nG4pKd3Dx8W5PENf-120" value="" style="endArrow=classic;html=1;rounded=0;" edge="1" parent="pxr-nG4pKd3Dx8W5PENf-122">
          <mxGeometry width="50" height="50" relative="1" as="geometry">
            <mxPoint x="114.55648535564853" y="117.55984555984557" as="sourcePoint" />
            <mxPoint x="132.0460251046025" y="117.55984555984557" as="targetPoint" />
          </mxGeometry>
        </mxCell>
        <mxCell id="pxr-nG4pKd3Dx8W5PENf-121" value="" style="endArrow=classic;html=1;rounded=0;" edge="1" parent="pxr-nG4pKd3Dx8W5PENf-122">
          <mxGeometry width="50" height="50" relative="1" as="geometry">
            <mxPoint x="62.087866108786606" y="117.55984555984557" as="sourcePoint" />
            <mxPoint x="79.57740585774059" y="117.55984555984557" as="targetPoint" />
          </mxGeometry>
        </mxCell>
        <mxCell id="pxr-nG4pKd3Dx8W5PENf-125" value="" style="group" vertex="1" connectable="0" parent="1">
          <mxGeometry x="-835" y="942.63" width="210" height="229.75" as="geometry" />
        </mxCell>
        <mxCell id="xA-fxwkaHmTKi_L9O3ju-66" value="&lt;font style=&quot;font-size: 14px;&quot;&gt;&lt;b&gt;Schedule&amp;nbsp;&lt;/b&gt;&lt;/font&gt;&lt;div&gt;&lt;font style=&quot;font-size: 14px;&quot;&gt;&lt;b&gt;&amp;amp;&lt;br&gt;Preempt&lt;/b&gt;&lt;/font&gt;&lt;/div&gt;" style="text;html=1;align=center;verticalAlign=middle;resizable=0;points=[];autosize=1;strokeColor=none;fillColor=none;fontFamily=Helvetica;fontSize=12;fontColor=default;" parent="pxr-nG4pKd3Dx8W5PENf-125" vertex="1">
          <mxGeometry x="70" y="81.75" width="90" height="60" as="geometry" />
        </mxCell>
        <mxCell id="pxr-nG4pKd3Dx8W5PENf-36" value="&lt;div&gt;&lt;br&gt;&lt;/div&gt;&lt;div&gt;&lt;br&gt;&lt;/div&gt;&lt;div&gt;&lt;br&gt;&lt;/div&gt;&lt;div&gt;&lt;br&gt;&lt;/div&gt;&lt;div&gt;&lt;br&gt;&lt;/div&gt;&lt;div&gt;&lt;br&gt;&lt;/div&gt;&lt;div&gt;&lt;br&gt;&lt;/div&gt;&lt;div&gt;&lt;br&gt;&lt;/div&gt;" style="rounded=1;whiteSpace=wrap;html=1;align=center;verticalAlign=middle;fontFamily=Helvetica;fontSize=12;" vertex="1" parent="pxr-nG4pKd3Dx8W5PENf-125">
          <mxGeometry x="10" y="9.75" width="200" height="220" as="geometry" />
        </mxCell>
        <mxCell id="pxr-nG4pKd3Dx8W5PENf-60" value="&lt;span style=&quot;font-size: 19px;&quot;&gt;&lt;b&gt;Cluster&lt;/b&gt;&lt;/span&gt;" style="rounded=0;whiteSpace=wrap;html=1;strokeColor=none;align=center;verticalAlign=middle;fontFamily=Helvetica;fontSize=12;fontColor=default;fillColor=none;" vertex="1" parent="pxr-nG4pKd3Dx8W5PENf-125">
          <mxGeometry width="210" height="60" as="geometry" />
        </mxCell>
        <mxCell id="pxr-nG4pKd3Dx8W5PENf-96" value="" style="group" vertex="1" connectable="0" parent="pxr-nG4pKd3Dx8W5PENf-125">
          <mxGeometry x="23" y="39.75" width="177" height="182.25" as="geometry" />
        </mxCell>
        <mxCell id="pxr-nG4pKd3Dx8W5PENf-91" value="" style="group" vertex="1" connectable="0" parent="pxr-nG4pKd3Dx8W5PENf-96">
          <mxGeometry width="175.24752475247521" height="80.01219512195122" as="geometry" />
        </mxCell>
        <mxCell id="pxr-nG4pKd3Dx8W5PENf-47" value="" style="rounded=1;whiteSpace=wrap;html=1;fillColor=#dae8fc;strokeColor=#6c8ebf;" vertex="1" parent="pxr-nG4pKd3Dx8W5PENf-91">
          <mxGeometry width="78.86138613861384" height="80.01219512195122" as="geometry" />
        </mxCell>
        <mxCell id="pxr-nG4pKd3Dx8W5PENf-71" value="" style="group" vertex="1" connectable="0" parent="pxr-nG4pKd3Dx8W5PENf-91">
          <mxGeometry x="4.381188118811879" y="4.445121951219512" width="70.09900990099007" height="71.1219512195122" as="geometry" />
        </mxCell>
        <mxCell id="pxr-nG4pKd3Dx8W5PENf-37" value="" style="sketch=0;pointerEvents=1;shadow=0;dashed=0;html=1;strokeColor=none;fillColor=#434445;aspect=fixed;labelPosition=center;verticalLabelPosition=bottom;verticalAlign=top;align=center;outlineConnect=0;shape=mxgraph.vvd.cpu;rounded=1;fontFamily=Helvetica;fontSize=12;fontColor=default;" vertex="1" parent="pxr-nG4pKd3Dx8W5PENf-71">
          <mxGeometry x="35.049504950495034" width="35.049504950495034" height="35.049504950495034" as="geometry" />
        </mxCell>
        <mxCell id="pxr-nG4pKd3Dx8W5PENf-38" value="" style="sketch=0;pointerEvents=1;shadow=0;dashed=0;html=1;strokeColor=none;fillColor=#434445;aspect=fixed;labelPosition=center;verticalLabelPosition=bottom;verticalAlign=top;align=center;outlineConnect=0;shape=mxgraph.vvd.cpu;rounded=1;fontFamily=Helvetica;fontSize=12;fontColor=default;" vertex="1" parent="pxr-nG4pKd3Dx8W5PENf-71">
          <mxGeometry width="35.049504950495034" height="35.049504950495034" as="geometry" />
        </mxCell>
        <mxCell id="pxr-nG4pKd3Dx8W5PENf-39" value="" style="sketch=0;pointerEvents=1;shadow=0;dashed=0;html=1;strokeColor=none;fillColor=#434445;aspect=fixed;labelPosition=center;verticalLabelPosition=bottom;verticalAlign=top;align=center;outlineConnect=0;shape=mxgraph.vvd.cpu;rounded=1;fontFamily=Helvetica;fontSize=12;fontColor=default;" vertex="1" parent="pxr-nG4pKd3Dx8W5PENf-71">
          <mxGeometry x="35.049504950495034" y="35.5609756097561" width="35.049504950495034" height="35.049504950495034" as="geometry" />
        </mxCell>
        <mxCell id="pxr-nG4pKd3Dx8W5PENf-40" value="" style="sketch=0;pointerEvents=1;shadow=0;dashed=0;html=1;strokeColor=none;fillColor=#434445;aspect=fixed;labelPosition=center;verticalLabelPosition=bottom;verticalAlign=top;align=center;outlineConnect=0;shape=mxgraph.vvd.cpu;rounded=1;fontFamily=Helvetica;fontSize=12;fontColor=default;" vertex="1" parent="pxr-nG4pKd3Dx8W5PENf-71">
          <mxGeometry y="35.5609756097561" width="35.049504950495034" height="35.049504950495034" as="geometry" />
        </mxCell>
        <mxCell id="pxr-nG4pKd3Dx8W5PENf-94" value="" style="rounded=1;whiteSpace=wrap;html=1;fillColor=#fff2cc;strokeColor=#d6b656;strokeWidth=3;" vertex="1" parent="pxr-nG4pKd3Dx8W5PENf-71">
          <mxGeometry x="8.762376237623759" y="44.45121951219513" width="52.574257425742545" height="17.78048780487805" as="geometry" />
        </mxCell>
        <mxCell id="pxr-nG4pKd3Dx8W5PENf-103" value="" style="rounded=1;whiteSpace=wrap;html=1;fillColor=#d5e8d4;strokeColor=#82b366;strokeWidth=3;" vertex="1" parent="pxr-nG4pKd3Dx8W5PENf-71">
          <mxGeometry x="6.571782178217818" y="6.6676829268292686" width="21.905940594059395" height="22.225609756097565" as="geometry" />
        </mxCell>
        <mxCell id="pxr-nG4pKd3Dx8W5PENf-102" value="" style="rounded=1;whiteSpace=wrap;html=1;fillColor=#d5e8d4;strokeColor=#82b366;strokeWidth=3;" vertex="1" parent="pxr-nG4pKd3Dx8W5PENf-71">
          <mxGeometry x="41.621287128712844" y="6.6676829268292686" width="21.905940594059395" height="22.225609756097565" as="geometry" />
        </mxCell>
        <mxCell id="pxr-nG4pKd3Dx8W5PENf-78" value="" style="group" vertex="1" connectable="0" parent="pxr-nG4pKd3Dx8W5PENf-91">
          <mxGeometry x="96.38613861386136" width="78.86138613861384" height="80.01219512195122" as="geometry" />
        </mxCell>
        <mxCell id="pxr-nG4pKd3Dx8W5PENf-72" value="" style="rounded=1;whiteSpace=wrap;html=1;fillColor=#dae8fc;strokeColor=#6c8ebf;" vertex="1" parent="pxr-nG4pKd3Dx8W5PENf-78">
          <mxGeometry width="78.86138613861384" height="80.01219512195122" as="geometry" />
        </mxCell>
        <mxCell id="pxr-nG4pKd3Dx8W5PENf-73" value="" style="group" vertex="1" connectable="0" parent="pxr-nG4pKd3Dx8W5PENf-78">
          <mxGeometry x="4.38118811881188" y="4.445121951219512" width="70.09900990099008" height="71.1219512195122" as="geometry" />
        </mxCell>
        <mxCell id="pxr-nG4pKd3Dx8W5PENf-74" value="" style="sketch=0;pointerEvents=1;shadow=0;dashed=0;html=1;strokeColor=none;fillColor=#434445;aspect=fixed;labelPosition=center;verticalLabelPosition=bottom;verticalAlign=top;align=center;outlineConnect=0;shape=mxgraph.vvd.cpu;rounded=1;fontFamily=Helvetica;fontSize=12;fontColor=default;" vertex="1" parent="pxr-nG4pKd3Dx8W5PENf-73">
          <mxGeometry x="35.04950495049504" width="35.04950495049504" height="35.04950495049504" as="geometry" />
        </mxCell>
        <mxCell id="pxr-nG4pKd3Dx8W5PENf-75" value="" style="sketch=0;pointerEvents=1;shadow=0;dashed=0;html=1;strokeColor=none;fillColor=#434445;aspect=fixed;labelPosition=center;verticalLabelPosition=bottom;verticalAlign=top;align=center;outlineConnect=0;shape=mxgraph.vvd.cpu;rounded=1;fontFamily=Helvetica;fontSize=12;fontColor=default;" vertex="1" parent="pxr-nG4pKd3Dx8W5PENf-73">
          <mxGeometry width="35.04950495049504" height="35.04950495049504" as="geometry" />
        </mxCell>
        <mxCell id="pxr-nG4pKd3Dx8W5PENf-76" value="" style="sketch=0;pointerEvents=1;shadow=0;dashed=0;html=1;strokeColor=none;fillColor=#434445;aspect=fixed;labelPosition=center;verticalLabelPosition=bottom;verticalAlign=top;align=center;outlineConnect=0;shape=mxgraph.vvd.cpu;rounded=1;fontFamily=Helvetica;fontSize=12;fontColor=default;" vertex="1" parent="pxr-nG4pKd3Dx8W5PENf-73">
          <mxGeometry x="35.04950495049504" y="35.5609756097561" width="35.04950495049504" height="35.04950495049504" as="geometry" />
        </mxCell>
        <mxCell id="pxr-nG4pKd3Dx8W5PENf-77" value="" style="sketch=0;pointerEvents=1;shadow=0;dashed=0;html=1;strokeColor=none;fillColor=#434445;aspect=fixed;labelPosition=center;verticalLabelPosition=bottom;verticalAlign=top;align=center;outlineConnect=0;shape=mxgraph.vvd.cpu;rounded=1;fontFamily=Helvetica;fontSize=12;fontColor=default;" vertex="1" parent="pxr-nG4pKd3Dx8W5PENf-73">
          <mxGeometry y="35.5609756097561" width="35.04950495049504" height="35.04950495049504" as="geometry" />
        </mxCell>
        <mxCell id="pxr-nG4pKd3Dx8W5PENf-100" value="" style="rounded=1;whiteSpace=wrap;html=1;fillColor=#fff2cc;strokeColor=#d6b656;strokeWidth=3;" vertex="1" parent="pxr-nG4pKd3Dx8W5PENf-73">
          <mxGeometry x="8.76237623762376" y="8.890243902439025" width="52.57425742574256" height="17.78048780487805" as="geometry" />
        </mxCell>
        <mxCell id="pxr-nG4pKd3Dx8W5PENf-99" value="" style="rounded=1;whiteSpace=wrap;html=1;fillColor=#fff2cc;strokeColor=#d6b656;strokeWidth=3;" vertex="1" parent="pxr-nG4pKd3Dx8W5PENf-73">
          <mxGeometry x="8.76237623762376" y="44.45121951219513" width="52.57425742574256" height="17.78048780487805" as="geometry" />
        </mxCell>
        <mxCell id="pxr-nG4pKd3Dx8W5PENf-93" value="" style="group" vertex="1" connectable="0" parent="pxr-nG4pKd3Dx8W5PENf-96">
          <mxGeometry x="1.7524752475247525" y="93.34756097560975" width="175.24752475247521" height="88.90243902439025" as="geometry" />
        </mxCell>
        <mxCell id="pxr-nG4pKd3Dx8W5PENf-89" value="" style="rounded=1;whiteSpace=wrap;html=1;fillColor=#dae8fc;strokeColor=#6c8ebf;" vertex="1" parent="pxr-nG4pKd3Dx8W5PENf-93">
          <mxGeometry width="175.24752475247521" height="88.90243902439025" as="geometry" />
        </mxCell>
        <mxCell id="pxr-nG4pKd3Dx8W5PENf-79" value="" style="group" vertex="1" connectable="0" parent="pxr-nG4pKd3Dx8W5PENf-93">
          <mxGeometry x="4.736419587904735" y="8.890243902439027" width="75.78271340647576" height="71.12195121951221" as="geometry" />
        </mxCell>
        <mxCell id="pxr-nG4pKd3Dx8W5PENf-80" value="" style="sketch=0;pointerEvents=1;shadow=0;dashed=0;html=1;strokeColor=none;fillColor=#434445;aspect=fixed;labelPosition=center;verticalLabelPosition=bottom;verticalAlign=top;align=center;outlineConnect=0;shape=mxgraph.vvd.cpu;rounded=1;fontFamily=Helvetica;fontSize=12;fontColor=default;" vertex="1" parent="pxr-nG4pKd3Dx8W5PENf-79">
          <mxGeometry x="37.89135670323788" width="35.049504950495034" height="35.049504950495034" as="geometry" />
        </mxCell>
        <mxCell id="pxr-nG4pKd3Dx8W5PENf-81" value="" style="sketch=0;pointerEvents=1;shadow=0;dashed=0;html=1;strokeColor=none;fillColor=#434445;aspect=fixed;labelPosition=center;verticalLabelPosition=bottom;verticalAlign=top;align=center;outlineConnect=0;shape=mxgraph.vvd.cpu;rounded=1;fontFamily=Helvetica;fontSize=12;fontColor=default;" vertex="1" parent="pxr-nG4pKd3Dx8W5PENf-79">
          <mxGeometry width="35.049504950495034" height="35.049504950495034" as="geometry" />
        </mxCell>
        <mxCell id="pxr-nG4pKd3Dx8W5PENf-82" value="" style="sketch=0;pointerEvents=1;shadow=0;dashed=0;html=1;strokeColor=none;fillColor=#434445;aspect=fixed;labelPosition=center;verticalLabelPosition=bottom;verticalAlign=top;align=center;outlineConnect=0;shape=mxgraph.vvd.cpu;rounded=1;fontFamily=Helvetica;fontSize=12;fontColor=default;" vertex="1" parent="pxr-nG4pKd3Dx8W5PENf-79">
          <mxGeometry x="37.89135670323788" y="35.560975609756106" width="35.049504950495034" height="35.049504950495034" as="geometry" />
        </mxCell>
        <mxCell id="pxr-nG4pKd3Dx8W5PENf-83" value="" style="sketch=0;pointerEvents=1;shadow=0;dashed=0;html=1;strokeColor=none;fillColor=#434445;aspect=fixed;labelPosition=center;verticalLabelPosition=bottom;verticalAlign=top;align=center;outlineConnect=0;shape=mxgraph.vvd.cpu;rounded=1;fontFamily=Helvetica;fontSize=12;fontColor=default;" vertex="1" parent="pxr-nG4pKd3Dx8W5PENf-79">
          <mxGeometry y="35.560975609756106" width="35.049504950495034" height="35.049504950495034" as="geometry" />
        </mxCell>
        <mxCell id="pxr-nG4pKd3Dx8W5PENf-98" value="" style="rounded=1;whiteSpace=wrap;html=1;fillColor=#d5e8d4;strokeColor=#82b366;strokeWidth=3;" vertex="1" parent="pxr-nG4pKd3Dx8W5PENf-79">
          <mxGeometry x="8.403118811881185" y="13.557621951219517" width="52.57425742574256" height="44.45121951219514" as="geometry" />
        </mxCell>
        <mxCell id="pxr-nG4pKd3Dx8W5PENf-84" value="" style="group" vertex="1" connectable="0" parent="pxr-nG4pKd3Dx8W5PENf-93">
          <mxGeometry x="89.99197217018997" y="8.890243902439027" width="75.78271340647576" height="71.12195121951221" as="geometry" />
        </mxCell>
        <mxCell id="pxr-nG4pKd3Dx8W5PENf-85" value="" style="sketch=0;pointerEvents=1;shadow=0;dashed=0;html=1;strokeColor=none;fillColor=#434445;aspect=fixed;labelPosition=center;verticalLabelPosition=bottom;verticalAlign=top;align=center;outlineConnect=0;shape=mxgraph.vvd.cpu;rounded=1;fontFamily=Helvetica;fontSize=12;fontColor=default;" vertex="1" parent="pxr-nG4pKd3Dx8W5PENf-84">
          <mxGeometry x="37.89135670323788" width="35.049504950495034" height="35.049504950495034" as="geometry" />
        </mxCell>
        <mxCell id="pxr-nG4pKd3Dx8W5PENf-86" value="" style="sketch=0;pointerEvents=1;shadow=0;dashed=0;html=1;strokeColor=none;fillColor=#434445;aspect=fixed;labelPosition=center;verticalLabelPosition=bottom;verticalAlign=top;align=center;outlineConnect=0;shape=mxgraph.vvd.cpu;rounded=1;fontFamily=Helvetica;fontSize=12;fontColor=default;" vertex="1" parent="pxr-nG4pKd3Dx8W5PENf-84">
          <mxGeometry width="35.049504950495034" height="35.049504950495034" as="geometry" />
        </mxCell>
        <mxCell id="pxr-nG4pKd3Dx8W5PENf-87" value="" style="sketch=0;pointerEvents=1;shadow=0;dashed=0;html=1;strokeColor=none;fillColor=#434445;aspect=fixed;labelPosition=center;verticalLabelPosition=bottom;verticalAlign=top;align=center;outlineConnect=0;shape=mxgraph.vvd.cpu;rounded=1;fontFamily=Helvetica;fontSize=12;fontColor=default;" vertex="1" parent="pxr-nG4pKd3Dx8W5PENf-84">
          <mxGeometry x="37.89135670323788" y="35.560975609756106" width="35.049504950495034" height="35.049504950495034" as="geometry" />
        </mxCell>
        <mxCell id="pxr-nG4pKd3Dx8W5PENf-88" value="" style="sketch=0;pointerEvents=1;shadow=0;dashed=0;html=1;strokeColor=none;fillColor=#434445;aspect=fixed;labelPosition=center;verticalLabelPosition=bottom;verticalAlign=top;align=center;outlineConnect=0;shape=mxgraph.vvd.cpu;rounded=1;fontFamily=Helvetica;fontSize=12;fontColor=default;" vertex="1" parent="pxr-nG4pKd3Dx8W5PENf-84">
          <mxGeometry y="35.560975609756106" width="35.049504950495034" height="35.049504950495034" as="geometry" />
        </mxCell>
        <mxCell id="pxr-nG4pKd3Dx8W5PENf-128" value="&lt;span style=&quot;font-size: 14px; text-wrap-mode: nowrap;&quot;&gt;&lt;b&gt;Schedule&lt;br&gt;&amp;amp;&lt;br&gt;Preempt&lt;/b&gt;&lt;/span&gt;" style="text;html=1;align=center;verticalAlign=middle;whiteSpace=wrap;rounded=0;" vertex="1" parent="1">
          <mxGeometry x="-895" y="1010" width="60" height="30" as="geometry" />
        </mxCell>
      </root>
    </mxGraphModel>
  </diagram>
</mxfile>
